<?xml version="1.0" encoding="utf-8"?>
<!-- Generator: Adobe Illustrator 16.2.1, SVG Export Plug-In . SVG Version: 6.00 Build 0)  -->
<!DOCTYPE svg PUBLIC "-//W3C//DTD SVG 1.1//EN" "http://www.w3.org/Graphics/SVG/1.1/DTD/svg11.dtd">
<svg version="1.1" id="Layer_1" xmlns="http://www.w3.org/2000/svg" xmlns:xlink="http://www.w3.org/1999/xlink" x="0px" y="0px"
	 width="144px" height="144px" viewBox="0 0 144 144" enable-background="new 0 0 144 144" xml:space="preserve">
<g>
	<path fill="#BD2126" d="M15.466,133.212c-11.001,0-13.909-7.811-13.909-11.94c0-1.158,0.939-2.097,2.097-2.097
		c1.158,0,2.097,0.938,2.097,2.097c0.011,0.78,0.378,7.747,9.715,7.747c5.958,0,17.047,0,26.836-6.992
		c12.153-8.683,18.317-25.495,18.317-49.974c0-23.724-7.617-40.513-22.64-49.901c-11.173-6.983-22.401-7.063-22.514-7.063
		c-0.99,0.005-9.715,0.268-9.715,7.746v29.531c0,3.579,2.035,5.506,4.244,6.542V29.865c0-0.962,0.655-1.801,1.588-2.034
		c0.502-0.125,12.418-2.983,22.631,4.991c9.106,7.11,13.724,20.31,13.724,39.23c0,43.781-18.197,44.284-18.972,44.284
		c-3.644,0-10.534-2.202-10.534-10.534V64.632c-0.944-0.104-1.971-0.211-3.08-0.327c-0.367-0.003-0.757-0.02-1.165-0.054v49.989
		c0,5.967,5.292,6.329,6.352,6.341c0.164,0.002,0.339,0.023,0.497,0.062c0.362,0.087,9.084,2.107,17.203-4.278
		c9.121-7.173,13.941-22.496,13.941-44.312c0-32.201-13.488-48.528-40.09-48.528c-1.158,0-2.097-0.939-2.097-2.097
		c0-1.158,0.939-2.097,2.097-2.097c20.202,0,44.284,9.146,44.284,52.722c0,23.539-5.254,39.577-15.617,47.668
		c-9.035,7.054-18.734,5.419-20.477,5.051c-3.699-0.098-10.287-2.384-10.287-10.531V63.401c-4.214-1.392-8.438-4.601-8.438-11.036
		V22.834c0-9.445,9.098-11.94,13.909-11.94c0.507,0,12.554,0.088,24.736,7.702c20.341,12.713,24.61,36.087,24.61,53.457
		C64.812,133.212,27.671,133.212,15.466,133.212z M22.626,65.17v40.633c0,6.163,5.691,6.341,6.34,6.341
		c0.111-0.006,14.778-0.988,14.778-40.091c0-17.53-4.06-29.605-12.066-35.891c-6.577-5.163-14.236-4.928-17.49-4.525v28.393
		c0.71,0.079,1.193,0.083,1.277,0.083c0.073,0,0.145,0.004,0.217,0.011c0.976,0.103,1.891,0.197,2.75,0.291V38.303
		c0-1.158,0.938-2.097,2.097-2.097c0.774,0,18.971,0.407,18.971,35.847c0,25.884-8.682,34.862-9.052,35.232
		c-0.6,0.6-1.502,0.778-2.285,0.454c-0.784-0.324-1.294-1.089-1.294-1.937v-33.75c0-3.648-0.033-5.286-0.826-5.864
		C25.452,65.756,24.312,65.445,22.626,65.17z M22.626,60.935c7.327,1.104,8.437,2.897,8.437,11.118v25.968
		c2.06-4.998,4.245-13.287,4.245-25.968c0-24.066-8.577-29.835-12.681-31.218V60.935z"/>
	<path fill="#ED1C24" d="M15.466,132.688c-10.587,0-13.385-7.467-13.385-11.416c0-0.867,0.706-1.572,1.573-1.572
		s1.573,0.705,1.573,1.572c0.012,0.854,0.403,8.271,10.239,8.271c6.016,0,17.214,0,27.141-7.091
		c12.3-8.786,18.538-25.742,18.538-50.399c0-23.917-7.701-40.855-22.887-50.346c-11.299-7.062-22.678-7.144-22.792-7.144
		c-1.05,0.005-10.239,0.283-10.239,8.271v29.531c0,3.195,1.572,5.621,4.545,7.016l0.747,0.351V29.865
		c0-0.723,0.49-1.351,1.191-1.526c0.239-0.06,2.437-0.583,5.683-0.583c4.325,0,10.699,0.951,16.499,5.479
		c8.973,7.006,13.521,20.065,13.521,38.817c0,43.263-17.694,43.76-18.447,43.76c-3.462,0-10.01-2.092-10.01-10.01V64.162
		l-0.467-0.052c-0.935-0.103-1.95-0.208-3.046-0.322c-0.44-0.011-0.817-0.026-1.211-0.059l-0.567-0.047v50.558
		c0,5.011,3.701,6.829,6.871,6.865c0.127,0.001,0.261,0.019,0.376,0.047c0.167,0.04,1.662,0.387,3.921,0.387
		c3.503,0,8.729-0.826,13.732-4.762c9.251-7.275,14.141-22.741,14.141-44.725C52.705,39.504,39.041,23,12.091,23
		c-0.867,0-1.572-0.705-1.572-1.572s0.706-1.572,1.572-1.572c36.167,0,43.758,28.385,43.758,52.197
		c0,23.37-5.186,39.268-15.415,47.255c-5.68,4.435-11.63,5.365-15.622,5.365c-2.223,0-3.834-0.289-4.424-0.415
		c-3.725-0.106-9.871-2.322-9.871-10.018V63.022l-0.36-0.118c-3.685-1.218-8.078-4.034-8.078-10.539V22.834
		c0-9.03,8.755-11.416,13.385-11.416c0.5,0,12.402,0.087,24.458,7.622c20.136,12.585,24.363,35.774,24.363,53.013
		C64.287,132.688,27.542,132.688,15.466,132.688z M22.102,105.803c0,6.672,6.162,6.864,6.865,6.864
		c0.176-0.007,15.302-1.158,15.302-40.614c0-17.699-4.127-29.913-12.267-36.303c-5.081-3.988-10.786-4.826-14.676-4.826
		c-1.09,0-2.167,0.064-3.202,0.192l-0.459,0.057v29.326l0.466,0.051c0.738,0.082,1.242,0.087,1.335,0.087
		c0.054,0,0.108,0.002,0.162,0.008l3.329,0.354V38.303c0-0.867,0.706-1.572,1.573-1.572c0.753,0,18.447,0.401,18.447,35.322
		c0,25.668-8.535,34.498-8.898,34.861c-0.297,0.297-0.692,0.461-1.113,0.461c-0.207,0-0.41-0.04-0.602-0.12
		c-0.589-0.243-0.97-0.814-0.97-1.452v-33.75c0-3.933-0.04-5.558-1.042-6.288c-0.64-0.467-1.729-0.799-3.642-1.111l-0.609-0.1
		V105.803z M22.102,61.386l0.446,0.066c6.946,1.048,7.991,2.436,7.991,10.601v25.968l1.009,0.199
		c1.954-4.741,4.284-13.13,4.284-26.167c0-8.215-1.271-27.751-13.039-31.715l-0.691-0.232V61.386z"/>
	<path fill="#BD2126" d="M119.391,132.919c-8.395,0-22.887-1.704-34.734-11.862c-12.164-10.43-18.332-27.053-18.332-49.406
		c0-60.862,44.887-60.862,59.637-60.862c13.037,0,16.482,7.778,16.482,11.891c-0.008,0.203-0.631,11.223-12.771,11.223h-10.277
		c-1.158,0-2.096-0.938-2.096-2.097s0.938-2.097,2.096-2.097h10.277c7.836,0,8.521-6.279,8.576-7.053
		c-0.02-0.305-0.18-2.082-1.514-3.797c-1.971-2.537-5.697-3.877-10.773-3.877c-6.818,0-21.012,0-33.107,7.06
		C78.033,30.69,70.518,47.382,70.518,71.65c0,21.055,5.664,36.599,16.838,46.197c15.959,13.712,38.068,10.53,38.287,10.496
		c0.107-0.016,0.213-0.023,0.318-0.023c0.121-0.001,12.289-0.124,12.289-7.698V91.239c0-10.209-5.455-12.823-7.801-13.474
		c-3.441-0.955-14.914-0.793-24.127-0.663c-3.1,0.044-6.039,0.086-8.525,0.086c-1.158,0-2.098-0.939-2.098-2.097
		c0-1.158,0.939-2.098,2.098-2.098c2.469,0,5.389-0.041,8.465-0.084c10.465-0.148,21.289-0.3,25.307,0.814
		c10.09,2.798,10.875,14.113,10.875,17.515v29.383c0,9.32-10.586,11.846-16.326,11.891
		C125.43,132.61,122.961,132.919,119.391,132.919z"/>
	<path fill="#ED1C24" d="M119.387,132.395c-7.732,0-22.48-1.524-34.391-11.735C72.953,110.333,66.848,93.845,66.848,71.65
		c0-60.338,44.494-60.338,59.113-60.338c12.623,0,15.957,7.435,15.957,11.366c-0.004,0.088-0.574,10.698-12.246,10.698h-10.277
		c-0.867,0-1.572-0.705-1.572-1.572s0.705-1.572,1.572-1.572h10.277c8.33,0,9.045-6.769,9.098-7.541
		c-0.02-0.43-0.201-2.329-1.623-4.154c-2.072-2.669-5.941-4.08-11.186-4.08c-6.865,0-21.152,0-33.371,7.132
		c-14.994,8.75-22.596,25.594-22.596,50.062c0,21.216,5.727,36.892,17.02,46.595c11.105,9.541,25.213,10.966,32.633,10.966
		c3.732,0,6.055-0.346,6.078-0.349c0.076-0.012,0.156-0.019,0.236-0.019c0.131,0,12.812-0.146,12.812-8.222V91.239
		c0-10.568-5.725-13.296-8.184-13.979c-1.922-0.533-6.295-0.781-13.762-0.781c-3.469,0-7.205,0.053-10.502,0.1
		c-3.135,0.044-6.057,0.085-8.529,0.085c-0.869,0-1.572-0.706-1.572-1.572c0-0.867,0.703-1.573,1.572-1.573
		c2.426,0,5.285-0.04,8.303-0.082l0.17-0.002c3.555-0.051,7.229-0.103,10.641-0.103c4.842,0,11.615,0.093,14.518,0.898
		c9.734,2.698,10.49,13.701,10.49,17.009v29.383c0,8.893-10.338,11.323-15.805,11.366c-0.732,0.1-3.18,0.406-6.723,0.406H119.387z"
		/>
	<path fill="#BD2126" d="M122.547,127.656c-0.494,0-49.348-0.634-49.348-55.438c0-23.494,7.436-39.805,22.1-48.477
		c11.768-6.96,24.756-6.96,30.998-6.96c5.318,0,8.188,2.948,8.188,5.722c0,1.582-0.881,3.027-2.416,3.967
		c-1.387,0.848-3.244,1.277-5.523,1.277c-15.205,0-40.715,5.668-40.715,43.623c0,37.294,22.277,44.493,35.557,45.465
		c3.465,0.25,4.461-3.169,4.629-3.92c0.023-1.301,0.152-9.094,0.152-15.862c0-5.133-4.443-6.311-5.436-6.51h-12.311
		c-1.158,0-2.098-0.938-2.098-2.097s0.939-2.097,2.098-2.097h12.498c0.107,0,0.213,0.008,0.318,0.024
		c3.156,0.485,9.123,3.341,9.123,10.679c0,7.413-0.154,16.04-0.156,16.126c-0.002,0.109-0.014,0.219-0.031,0.326
		c-0.492,2.792-3.021,7.954-9.094,7.513c-11.859-0.868-39.443-7.444-39.443-49.647c0-19.7,6.477-33.62,19.252-41.373
		c7.043-4.275,15.674-6.443,25.656-6.443c1.959,0,2.93-0.415,3.336-0.662c0.334-0.205,0.41-0.367,0.41-0.389
		c0-0.368-1.203-1.528-3.994-1.528c-12.096,0-48.904,0-48.904,51.243c0,50.555,43.312,51.239,45.156,51.243
		c0.391-0.001,9.713-0.119,9.713-6.793v-26.67c0-6.716-9.318-6.793-9.715-6.793h-11.814c-0.393,0.001-9.715,0.119-9.715,6.793
		c0,1.224,0.395,2.149,1.246,2.914c2.84,2.552,9.621,2.451,11.992,2.197c0.076-0.008,0.15-0.012,0.227-0.012
		c0.092,0,9.223,0.125,9.223,10.987c0,1.157-0.938,2.097-2.098,2.097c-1.156,0-2.096-0.939-2.096-2.097
		c0-6.308-4.119-6.764-4.938-6.792c-1.553,0.155-10.531,0.85-15.107-3.257c-1.729-1.551-2.643-3.64-2.643-6.038
		c0-8.69,9.098-10.986,13.908-10.986h11.814c4.811,0,13.908,2.296,13.908,10.986v26.67
		C136.455,125.359,127.357,127.656,122.547,127.656z"/>
	<path fill="#ED1C24" d="M122.547,127.132c-0.488,0-48.824-0.628-48.824-54.913c0-23.296,7.35-39.454,21.842-48.026
		c11.645-6.886,24.535-6.886,30.732-6.886c4.977,0,7.662,2.678,7.662,5.197c0,1.395-0.789,2.678-2.164,3.519
		c-1.303,0.798-3.068,1.202-5.25,1.202c-15.402,0-41.238,5.735-41.238,44.146c0,37.718,22.582,45.002,36.043,45.987
		c0.135,0.01,0.266,0.015,0.395,0.015c2.814,0,4.336-2.34,4.783-4.343l0.012-0.052l0.002-0.054
		c0.025-1.471,0.152-9.147,0.152-15.871c0-5.567-4.881-6.828-5.857-7.023l-12.414-0.011c-0.867,0-1.572-0.705-1.572-1.572
		s0.705-1.572,1.572-1.572h12.498c0.08,0,0.158,0.006,0.238,0.018c3.002,0.462,8.68,3.179,8.68,10.161
		c0,6.488-0.119,13.905-0.154,16.023c-0.004,0.176-0.012,0.259-0.027,0.34c-0.432,2.455-2.631,7.104-7.854,7.104c0,0,0,0-0.002,0
		c-0.223,0-0.449-0.009-0.682-0.025c-11.713-0.857-38.957-7.36-38.957-49.124c0-19.505,6.391-33.274,18.998-40.926
		c6.961-4.224,15.5-6.366,25.385-6.366c1.982,0,3.057-0.401,3.607-0.739c0.248-0.15,0.662-0.461,0.662-0.836
		c0-0.839-1.609-2.053-4.518-2.053c-12.225,0-49.428,0-49.428,51.768c0,51.066,43.812,51.764,45.678,51.768
		c0.422-0.001,10.238-0.122,10.238-7.317v-26.67c0-7.234-9.822-7.317-10.238-7.317h-11.814c-0.42,0.002-10.24,0.122-10.24,7.317
		c0,1.364,0.465,2.445,1.422,3.305c2.377,2.136,7.102,2.454,9.707,2.454c0.963,0,1.943-0.046,2.691-0.126
		c0.057-0.006,0.115-0.009,0.17-0.009c0.354,0.003,8.699,0.195,8.699,10.463c0,0.867-0.705,1.572-1.574,1.572
		c-0.865,0-1.572-0.705-1.572-1.572c0-6.785-4.533-7.284-5.443-7.315c-0.486,0.043-1.615,0.141-3.088,0.141
		c-3.006,0-8.521-0.425-11.688-3.264c-1.615-1.449-2.469-3.402-2.469-5.648c0-8.275,8.756-10.463,13.385-10.463h11.814
		c4.629,0,13.385,2.188,13.385,10.463v26.67C135.932,124.945,127.176,127.132,122.547,127.132z"/>
</g>
<path fill="#700F11" d="M15.466,132.688c-10.587,0-13.385-7.467-13.385-11.416c0-0.867,0.706-1.572,1.573-1.572
	s1.573,0.705,1.573,1.572c0.012,0.854,0.403,8.271,10.239,8.271c6.016,0,17.214,0,27.141-7.091
	c12.3-8.786,18.538-25.742,18.538-50.399c0-23.917-7.701-40.855-22.887-50.346c-11.299-7.062-22.678-7.144-22.792-7.144
	c-1.05,0.005-10.239,0.283-10.239,8.271v29.531c0,3.195,1.572,5.621,4.545,7.016l0.747,0.351V29.865c0-0.723,0.49-1.351,1.191-1.526
	c0.239-0.06,2.437-0.583,5.683-0.583c4.325,0,10.699,0.951,16.499,5.479c8.973,7.006,13.521,20.065,13.521,38.817
	c0,43.263-17.694,43.76-18.447,43.76c-3.462,0-10.01-2.092-10.01-10.01V64.162l-0.467-0.052c-0.935-0.103-1.95-0.208-3.046-0.322
	c-0.44-0.011-0.817-0.026-1.211-0.059l-0.567-0.047v50.558c0,5.011,3.701,6.829,6.871,6.865c0.127,0.001,0.261,0.019,0.376,0.047
	c0.167,0.04,1.662,0.387,3.921,0.387c3.503,0,8.729-0.826,13.732-4.762c9.251-7.275,14.141-22.741,14.141-44.725
	C52.705,39.504,39.041,23,12.091,23c-0.867,0-1.572-0.705-1.572-1.572s0.706-1.572,1.572-1.572
	c36.167,0,43.758,28.385,43.758,52.197c0,23.37-5.186,39.268-15.415,47.255c-5.68,4.435-11.63,5.365-15.622,5.365
	c-2.223,0-3.834-0.289-4.424-0.415c-3.725-0.106-9.871-2.322-9.871-10.018V63.022l-0.36-0.118
	c-3.685-1.218-8.078-4.034-8.078-10.539V22.834c0-9.03,8.755-11.416,13.385-11.416c0.5,0,12.402,0.087,24.458,7.622
	c20.136,12.585,24.363,35.774,24.363,53.013C64.287,132.688,27.542,132.688,15.466,132.688z M22.102,105.803
	c0,6.672,6.162,6.864,6.865,6.864c0.176-0.007,15.302-1.158,15.302-40.614c0-17.699-4.127-29.913-12.267-36.303
	c-5.081-3.988-10.786-4.826-14.676-4.826c-1.09,0-2.167,0.064-3.202,0.192l-0.459,0.057v29.326l0.466,0.051
	c0.738,0.082,1.242,0.087,1.335,0.087c0.054,0,0.108,0.002,0.162,0.008l3.329,0.354V38.303c0-0.867,0.706-1.572,1.573-1.572
	c0.753,0,18.447,0.401,18.447,35.322c0,25.668-8.535,34.498-8.898,34.861c-0.297,0.297-0.692,0.461-1.113,0.461
	c-0.207,0-0.41-0.04-0.602-0.12c-0.589-0.243-0.97-0.814-0.97-1.452v-33.75c0-3.933-0.04-5.558-1.042-6.288
	c-0.64-0.467-1.729-0.799-3.642-1.111l-0.609-0.1V105.803z M22.102,61.386l0.446,0.066c6.946,1.048,7.991,2.436,7.991,10.601v25.968
	l1.009,0.199c1.954-4.741,4.284-13.13,4.284-26.167c0-8.215-1.271-27.751-13.039-31.715l-0.691-0.232V61.386z"/>
<path fill="#700F11" d="M119.387,132.395c-7.732,0-22.48-1.524-34.391-11.735C72.953,110.333,66.848,93.845,66.848,71.65
	c0-60.338,44.494-60.338,59.113-60.338c12.623,0,15.957,7.435,15.957,11.366c-0.004,0.088-0.574,10.698-12.246,10.698h-10.277
	c-0.867,0-1.572-0.705-1.572-1.572s0.705-1.572,1.572-1.572h10.277c8.33,0,9.045-6.769,9.098-7.541
	c-0.02-0.43-0.201-2.329-1.623-4.154c-2.072-2.669-5.941-4.08-11.186-4.08c-6.865,0-21.152,0-33.371,7.132
	c-14.994,8.75-22.596,25.594-22.596,50.062c0,21.216,5.727,36.892,17.02,46.595c11.105,9.541,25.213,10.966,32.633,10.966
	c3.732,0,6.055-0.346,6.078-0.349c0.076-0.012,0.156-0.019,0.236-0.019c0.131,0,12.812-0.146,12.812-8.222V91.239
	c0-10.568-5.725-13.296-8.184-13.979c-1.922-0.533-6.295-0.781-13.762-0.781c-3.469,0-7.205,0.053-10.502,0.1
	c-3.135,0.044-6.057,0.085-8.529,0.085c-0.869,0-1.572-0.706-1.572-1.572c0-0.867,0.703-1.573,1.572-1.573
	c2.426,0,5.285-0.04,8.303-0.082l0.17-0.002c3.555-0.051,7.229-0.103,10.641-0.103c4.842,0,11.615,0.093,14.518,0.898
	c9.734,2.698,10.49,13.701,10.49,17.009v29.383c0,8.893-10.338,11.323-15.805,11.366c-0.732,0.1-3.18,0.406-6.723,0.406H119.387z"/>
<path fill="#700F11" d="M122.547,127.132c-0.488,0-48.824-0.628-48.824-54.913c0-23.296,7.35-39.454,21.842-48.026
	c11.645-6.886,24.535-6.886,30.732-6.886c4.977,0,7.662,2.678,7.662,5.197c0,1.395-0.789,2.678-2.164,3.519
	c-1.303,0.798-3.068,1.202-5.25,1.202c-15.402,0-41.238,5.735-41.238,44.146c0,37.718,22.582,45.002,36.043,45.987
	c0.135,0.01,0.266,0.015,0.395,0.015c2.814,0,4.336-2.34,4.783-4.343l0.012-0.052l0.002-0.054c0.025-1.471,0.152-9.147,0.152-15.871
	c0-5.567-4.881-6.828-5.857-7.023l-12.414-0.011c-0.867,0-1.572-0.705-1.572-1.572s0.705-1.572,1.572-1.572h12.498
	c0.08,0,0.158,0.006,0.238,0.018c3.002,0.462,8.68,3.179,8.68,10.161c0,6.488-0.119,13.905-0.154,16.023
	c-0.004,0.176-0.012,0.259-0.027,0.34c-0.432,2.455-2.631,7.104-7.854,7.104c0,0,0,0-0.002,0c-0.223,0-0.449-0.009-0.682-0.025
	c-11.713-0.857-38.957-7.36-38.957-49.124c0-19.505,6.391-33.274,18.998-40.926c6.961-4.224,15.5-6.366,25.385-6.366
	c1.982,0,3.057-0.401,3.607-0.739c0.248-0.15,0.662-0.461,0.662-0.836c0-0.839-1.609-2.053-4.518-2.053
	c-12.225,0-49.428,0-49.428,51.768c0,51.066,43.812,51.764,45.678,51.768c0.422-0.001,10.238-0.122,10.238-7.317v-26.67
	c0-7.234-9.822-7.317-10.238-7.317h-11.814c-0.42,0.002-10.24,0.122-10.24,7.317c0,1.364,0.465,2.445,1.422,3.305
	c2.377,2.136,7.102,2.454,9.707,2.454c0.963,0,1.943-0.046,2.691-0.126c0.057-0.006,0.115-0.009,0.17-0.009
	c0.354,0.003,8.699,0.195,8.699,10.463c0,0.867-0.705,1.572-1.574,1.572c-0.865,0-1.572-0.705-1.572-1.572
	c0-6.785-4.533-7.284-5.443-7.315c-0.486,0.043-1.615,0.141-3.088,0.141c-3.006,0-8.521-0.425-11.688-3.264
	c-1.615-1.449-2.469-3.402-2.469-5.648c0-8.275,8.756-10.463,13.385-10.463h11.814c4.629,0,13.385,2.188,13.385,10.463v26.67
	C135.932,124.945,127.176,127.132,122.547,127.132z"/>
</svg>
